name rise45.9887peak57.8056fall74.9286.mot
datacolumns 19
datarows 30
range 12.88494900000000 12.93328500000000
endheader
time	ground_force1_vx	ground_force1_vy	ground_force1_vz	ground_force1_px	ground_force1_py	ground_force1_pz	ground_force2_vx	ground_force2_vy	ground_force2_vz	ground_force2_px	ground_force2_py	ground_force2_pz	ground_torque1_x	ground_torque1_y	ground_torque1_z	ground_torque2_x	ground_torque2_y	ground_torque2_z	
12.88494900000000	13.28492500000000	702.72015999999996	42.59433000000000	0.25523400000000	0.00000000000000	0.12263700000000	0.00000000000000	0.00000000000000	0.00000000000000	0.00000000000000	0.00000000000000	0.00000000000000	0.00000000000000	18.86618600000000	0.00000000000000	0.00000000000000	0.00000000000000	0.00000000000000	
12.88662300000000	12.92895400000000	703.39229100000000	42.61507400000000	0.25469800000000	0.00000000000000	0.12264000000000	0.00000000000000	0.00000000000000	0.00000000000000	0.00000000000000	0.00000000000000	0.00000000000000	0.00000000000000	18.91717400000000	0.00000000000000	0.00000000000000	0.00000000000000	0.00000000000000	
12.88828300000000	12.56819500000000	704.10326299999997	42.63852600000000	0.25418000000000	0.00000000000000	0.12264000000000	0.00000000000000	0.00000000000000	0.00000000000000	0.00000000000000	0.00000000000000	0.00000000000000	0.00000000000000	18.97206300000000	0.00000000000000	0.00000000000000	0.00000000000000	0.00000000000000	
12.88995500000000	12.20230200000000	704.85155099999997	42.66452900000000	0.25367500000000	0.00000000000000	0.12263700000000	0.00000000000000	0.00000000000000	0.00000000000000	0.00000000000000	0.00000000000000	0.00000000000000	0.00000000000000	19.03072700000000	0.00000000000000	0.00000000000000	0.00000000000000	0.00000000000000	
12.89161500000000	11.83094200000000	705.63567100000000	42.69294200000000	0.25318100000000	0.00000000000000	0.12263100000000	0.00000000000000	0.00000000000000	0.00000000000000	0.00000000000000	0.00000000000000	0.00000000000000	0.00000000000000	19.09304400000000	0.00000000000000	0.00000000000000	0.00000000000000	0.00000000000000	
12.89328400000000	11.45379000000000	706.45418400000005	42.72363500000000	0.25269500000000	0.00000000000000	0.12262300000000	0.00000000000000	0.00000000000000	0.00000000000000	0.00000000000000	0.00000000000000	0.00000000000000	0.00000000000000	19.15889800000000	0.00000000000000	0.00000000000000	0.00000000000000	0.00000000000000	
12.89495700000000	11.07053500000000	707.30569300000002	42.75649700000000	0.25221600000000	0.00000000000000	0.12261300000000	0.00000000000000	0.00000000000000	0.00000000000000	0.00000000000000	0.00000000000000	0.00000000000000	0.00000000000000	19.22817500000000	0.00000000000000	0.00000000000000	0.00000000000000	0.00000000000000	
12.89662200000000	10.68087800000000	708.18884800000001	42.79142700000000	0.25173900000000	0.00000000000000	0.12260000000000	0.00000000000000	0.00000000000000	0.00000000000000	0.00000000000000	0.00000000000000	0.00000000000000	0.00000000000000	19.30076900000000	0.00000000000000	0.00000000000000	0.00000000000000	0.00000000000000	
12.89828800000000	10.28453500000000	709.10234500000001	42.82834400000000	0.25126200000000	0.00000000000000	0.12258600000000	0.00000000000000	0.00000000000000	0.00000000000000	0.00000000000000	0.00000000000000	0.00000000000000	0.00000000000000	19.37657700000000	0.00000000000000	0.00000000000000	0.00000000000000	0.00000000000000	
12.89995300000000	9.88123600000000	710.04492700000003	42.86717800000000	0.25078300000000	0.00000000000000	0.12257000000000	0.00000000000000	0.00000000000000	0.00000000000000	0.00000000000000	0.00000000000000	0.00000000000000	0.00000000000000	19.45550500000000	0.00000000000000	0.00000000000000	0.00000000000000	0.00000000000000	
12.90162300000000	9.47072800000000	711.01538600000003	42.90787600000000	0.25029800000000	0.00000000000000	0.12255200000000	0.00000000000000	0.00000000000000	0.00000000000000	0.00000000000000	0.00000000000000	0.00000000000000	0.00000000000000	19.53746300000000	0.00000000000000	0.00000000000000	0.00000000000000	0.00000000000000	
12.90329000000000	9.05277500000000	712.01256200000000	42.95040000000000	0.24980600000000	0.00000000000000	0.12253300000000	0.00000000000000	0.00000000000000	0.00000000000000	0.00000000000000	0.00000000000000	0.00000000000000	0.00000000000000	19.62236700000000	0.00000000000000	0.00000000000000	0.00000000000000	0.00000000000000	
12.90495700000000	8.62715700000000	713.03534100000002	42.99472700000000	0.24930300000000	0.00000000000000	0.12251200000000	0.00000000000000	0.00000000000000	0.00000000000000	0.00000000000000	0.00000000000000	0.00000000000000	0.00000000000000	19.71013900000000	0.00000000000000	0.00000000000000	0.00000000000000	0.00000000000000	
12.90661700000000	8.19367600000000	714.08265600000004	43.04084600000000	0.24878800000000	0.00000000000000	0.12249100000000	0.00000000000000	0.00000000000000	0.00000000000000	0.00000000000000	0.00000000000000	0.00000000000000	0.00000000000000	19.80070800000000	0.00000000000000	0.00000000000000	0.00000000000000	0.00000000000000	
12.90828800000000	7.75215100000000	715.15348600000004	43.08876200000000	0.24825800000000	0.00000000000000	0.12246800000000	0.00000000000000	0.00000000000000	0.00000000000000	0.00000000000000	0.00000000000000	0.00000000000000	0.00000000000000	19.89400800000000	0.00000000000000	0.00000000000000	0.00000000000000	0.00000000000000	
12.90995700000000	7.30242200000000	716.24685499999998	43.13849400000000	0.24771000000000	0.00000000000000	0.12244500000000	0.00000000000000	0.00000000000000	0.00000000000000	0.00000000000000	0.00000000000000	0.00000000000000	0.00000000000000	19.98998100000000	0.00000000000000	0.00000000000000	0.00000000000000	0.00000000000000	
12.91161800000000	6.84435300000000	717.36183000000005	43.19007100000000	0.24714300000000	0.00000000000000	0.12242100000000	0.00000000000000	0.00000000000000	0.00000000000000	0.00000000000000	0.00000000000000	0.00000000000000	0.00000000000000	20.08857200000000	0.00000000000000	0.00000000000000	0.00000000000000	0.00000000000000	
12.91329000000000	6.37782700000000	718.49751900000001	43.24353900000000	0.24655500000000	0.00000000000000	0.12239700000000	0.00000000000000	0.00000000000000	0.00000000000000	0.00000000000000	0.00000000000000	0.00000000000000	0.00000000000000	20.18973300000000	0.00000000000000	0.00000000000000	0.00000000000000	0.00000000000000	
12.91495500000000	5.90275100000000	719.65307099999995	43.29895100000000	0.24594500000000	0.00000000000000	0.12237200000000	0.00000000000000	0.00000000000000	0.00000000000000	0.00000000000000	0.00000000000000	0.00000000000000	0.00000000000000	20.29341900000000	0.00000000000000	0.00000000000000	0.00000000000000	0.00000000000000	
12.91661500000000	5.41905700000000	720.82767300000000	43.35637500000000	0.24530900000000	0.00000000000000	0.12234700000000	0.00000000000000	0.00000000000000	0.00000000000000	0.00000000000000	0.00000000000000	0.00000000000000	0.00000000000000	20.39959300000000	0.00000000000000	0.00000000000000	0.00000000000000	0.00000000000000	
12.91828500000000	4.92669900000000	722.02054799999996	43.41588700000000	0.24464800000000	0.00000000000000	0.12232200000000	0.00000000000000	0.00000000000000	0.00000000000000	0.00000000000000	0.00000000000000	0.00000000000000	0.00000000000000	20.50822000000000	0.00000000000000	0.00000000000000	0.00000000000000	0.00000000000000	
12.91994900000000	4.42565600000000	723.23095200000000	43.47757300000000	0.24396000000000	0.00000000000000	0.12229700000000	0.00000000000000	0.00000000000000	0.00000000000000	0.00000000000000	0.00000000000000	0.00000000000000	0.00000000000000	20.61926800000000	0.00000000000000	0.00000000000000	0.00000000000000	0.00000000000000	
12.92162300000000	3.91593500000000	724.45817399999999	43.54152900000000	0.24324400000000	0.00000000000000	0.12227200000000	0.00000000000000	0.00000000000000	0.00000000000000	0.00000000000000	0.00000000000000	0.00000000000000	0.00000000000000	20.73271000000000	0.00000000000000	0.00000000000000	0.00000000000000	0.00000000000000	
12.92328500000000	3.39756300000000	725.70153200000004	43.60785800000000	0.24249800000000	0.00000000000000	0.12224800000000	0.00000000000000	0.00000000000000	0.00000000000000	0.00000000000000	0.00000000000000	0.00000000000000	0.00000000000000	20.84852000000000	0.00000000000000	0.00000000000000	0.00000000000000	0.00000000000000	
12.92495000000000	2.87059900000000	726.96037000000001	43.67667000000000	0.24172300000000	0.00000000000000	0.12222300000000	0.00000000000000	0.00000000000000	0.00000000000000	0.00000000000000	0.00000000000000	0.00000000000000	0.00000000000000	20.96667400000000	0.00000000000000	0.00000000000000	0.00000000000000	0.00000000000000	
12.92662000000000	2.33512200000000	728.23405800000000	43.74808100000000	0.24091800000000	0.00000000000000	0.12219900000000	0.00000000000000	0.00000000000000	0.00000000000000	0.00000000000000	0.00000000000000	0.00000000000000	0.00000000000000	21.08715000000000	0.00000000000000	0.00000000000000	0.00000000000000	0.00000000000000	
12.92828500000000	1.79124100000000	729.52198699999997	43.82221200000000	0.24008200000000	0.00000000000000	0.12217500000000	0.00000000000000	0.00000000000000	0.00000000000000	0.00000000000000	0.00000000000000	0.00000000000000	0.00000000000000	21.20992600000000	0.00000000000000	0.00000000000000	0.00000000000000	0.00000000000000	
12.92994900000000	1.23909000000000	730.82356900000002	43.89918800000000	0.23921500000000	0.00000000000000	0.12215200000000	0.00000000000000	0.00000000000000	0.00000000000000	0.00000000000000	0.00000000000000	0.00000000000000	0.00000000000000	21.33497900000000	0.00000000000000	0.00000000000000	0.00000000000000	0.00000000000000	
12.93162000000000	0.67882500000000	732.13823300000001	43.97913800000000	0.23831800000000	0.00000000000000	0.12212900000000	0.00000000000000	0.00000000000000	0.00000000000000	0.00000000000000	0.00000000000000	0.00000000000000	0.00000000000000	21.46228500000000	0.00000000000000	0.00000000000000	0.00000000000000	0.00000000000000	
12.93328500000000	0.11063300000000	733.46542099999999	44.06219100000000	0.23739100000000	0.00000000000000	0.12210600000000	0.00000000000000	0.00000000000000	0.00000000000000	0.00000000000000	0.00000000000000	0.00000000000000	0.00000000000000	21.59182000000000	0.00000000000000	0.00000000000000	0.00000000000000	0.00000000000000	
